#!OML:ASF H:\ManfredETheater\Project 1\Capture day 1\Session 1\subject.ASF
:FULLY-SPECIFIED
:DEGREES
92
root 1.88735 14.5479 -7.71455 -200.068 -32.4633 -171.745
lowerback 22.7204 -7.65429 -4.35795
upperback 2.77828 -11.6125 -1.11983
thorax -8.83049 -5.5707 4.60457
lowerneck -14.286 -1.0352 -1.44705
upperneck 15.1472 -1.68559 2.46151
head 7.02018 -0.734688 0.856573
rclavicle 1.2111e-013 -1.90833e-014
rhumerus -39.3665 -44.5678 33.4945
rradius 80.8141
rwrist -28.76
rhand -31.8727 -8.54723
rfingers 7.12502
rthumb -5.12579 -38.4652
lclavicle 1.2111e-013 -1.90833e-014
lhumerus -40.1519 9.94201 68.4531
lradius 86.4424
lwrist 3.81535
lhand -24.7451 -0.8981
lfingers 7.12502
lthumb 1.75776 29.0744
rfemur -32.895 -4.18586 6.31294
rtibia 39.3896
rfoot 17.5072 -10.8249
rtoes -26.4638
lfemur -24.2643 -9.49314 -1.55092
ltibia 94.1217
lfoot -16.5765 -22.1482
ltoes -14.2461
93
root 1.94836 14.4906 -8.14274 -200.712 -32.9849 -171.186
lowerback 23.3072 -7.5014 -3.94639
upperback 2.83043 -11.3452 -1.09637
thorax -9.1791 -5.43906 4.43121
lowerneck -14.2265 -1.34567 -1.43518
upperneck 15.2647 -2.15809 2.64757
head 7.06012 -0.94778 0.866477
rclavicle -6.06293e-015 -6.36111e-015
rhumerus -35.1234 -46.0514 32.497
rradius 81.5759
rwrist -28.1115
rhand -31.4388 -8.52771
rfingers 7.12502
rthumb -4.70682 -38.4554
lclavicle -6.06293e-015 -6.36111e-015
lhumerus -41.0919 10.8733 70.824
lradius 84.4843
lwrist 4.47494
lhand -25.8808 -0.311214
lfingers 7.12502
lthumb 0.660889 29.6675
rfemur -33.4263 -4.99652 7.28109
rtibia 42.4157
rfoot 16.6899 -9.84882
rtoes -22.3632
lfemur -25.4079 -10.3836 -0.258079
ltibia 95.3603
lfoot -14.0825 -24.5271
ltoes -11.9213
94
root 2.00723 14.4283 -8.55034 -201.469 -33.2889 -170.533
lowerback 24.0371 -7.30387 -3.29887
upperback 2.94819 -10.9683 -1.08727
thorax -9.57997 -5.26765 4.09526
lowerneck -14.1917 -1.69335 -1.44722
upperneck 15.2851 -2.67867 2.88359
head 7.07592 -1.17938 0.891446
rclavicle -5.45664e-014 6.83819e-014
rhumerus -30.8882 -47.3961 31.0395
rradius 82.3176
rwrist -27.3245
rhand -31.0424 -8.55583
rfingers 7.12502
rthumb -4.32404 -38.4917
lclavicle -5.45664e-014 6.83819e-014
lhumerus -41.9196 11.9066 72.8287
lradius 82.6082
lwrist 5.64602
lhand -27.2374 0.389957
lfingers 7.12502
lthumb -0.649338 30.3687
rfemur -34.0182 -5.69837 8.40842
rtibia 45.4904
rfoot 15.4199 -8.99436
rtoes -19.6189
lfemur -26.6498 -10.8953 1.00238
ltibia 96.3807
lfoot -12.3994 -26.9475
ltoes -9.53609
95
root 2.06149 14.3647 -8.9363 -202.254 -33.352 -169.862
lowerback 24.8351 -7.05908 -2.45801
upperback 3.13044 -10.4806 -1.09481
thorax -9.97791 -5.05958 3.59595
lowerneck -14.1955 -2.06346 -1.48178
upperneck 15.2077 -3.22374 3.15753
head 7.06977 -1.4192 0.929702
rclavicle -8.18496e-014 3.81667e-014
rhumerus -26.7516 -48.553 29.1825
rradius 83.0974
rwrist -26.4696
rhand -30.7224 -8.62269
rfingers 7.12502
rthumb -4.01509 -38.5646
lclavicle -8.18496e-014 3.81667e-014
lhumerus -42.6273 12.9555 74.4909
lradius 80.8305
lwrist 7.20338
lhand -28.7332 1.15832
lfingers 7.12502
lthumb -2.09405 31.1278
rfemur -34.6019 -6.16252 9.58557
rtibia 48.3635
rfoot 13.8172 -8.3081
rtoes -19.0898
lfemur -27.9626 -10.9096 2.10659
ltibia 97.1224
lfoot -11.522 -29.2919
ltoes -7.40567
96
root 2.11071 14.3037 -9.30197 -202.968 -33.2027 -169.264
lowerback 25.6287 -6.76467 -1.52434
upperback 3.36437 -9.89972 -1.12142
thorax -10.3205 -4.82242 2.97252
lowerneck -14.2405 -2.44761 -1.54467
upperneck 15.0557 -3.77859 3.45418
head 7.04968 -1.66234 0.978603
rclavicle 4.73108e-014 -2.38542e-014
rhumerus -22.7912 -49.4798 26.9949
rradius 83.9658
rwrist -25.6254
rhand -30.5003 -8.71033
rfingers 7.12502
rthumb -3.80056 -38.6562
lclavicle 4.73108e-014 -2.38542e-014
lhumerus -43.2195 13.9287 75.8424
lradius 79.1471
lwrist 8.99072
lhand -30.2116 1.93159
lfingers 7.12502
lthumb -3.52185 31.8822
rfemur -35.1513 -6.38042 10.7208
rtibia 50.9029
rfoot 12.0913 -7.87108
rtoes -20.166
lfemur -29.329 -10.3437 2.91427
ltibia 97.5475
lfoot -11.3263 -31.4222
ltoes -5.38003
97
root 2.15595 14.2477 -9.65104 -203.538 -32.9195 -168.814
lowerback 26.3738 -6.42334 -0.617389
upperback 3.62833 -9.26003 -1.17
thorax -10.5812 -4.56722 2.28983
lowerneck -14.3175 -2.83513 -1.64228
upperneck 14.8729 -4.32876 3.76398
head 7.02825 -1.9037 1.03731
rclavicle -5.71506e-016 -2.54444e-014
rhumerus -19.0755 -50.083 24.5691
rradius 84.9622
rwrist -24.9251
rhand -30.4674 -8.81473
rfingers 7.12502
rthumb -3.76879 -38.7612
lclavicle -5.71506e-016 -2.54444e-014
lhumerus -43.71 14.7591 76.9113
lradius 77.5321
lwrist 10.8098
lhand -31.4998 2.65069
lfingers 7.12502
lthumb -4.76573 32.5771
rfemur -35.6684 -6.40314 11.7356
rtibia 53.1262
rfoot 10.3959 -7.6615
rtoes -22.0606
lfemur -30.7367 -9.24402 3.32461
ltibia 97.6906
lfoot -11.4493 -33.0895
ltoes -3.17069
98
root 2.19922 14.1976 -9.98776 -203.922 -32.6172 -168.545
lowerback 27.0266 -6.04791 0.152865
upperback 3.90301 -8.60881 -1.23234
thorax -10.7388 -4.30934 1.63072
lowerneck -14.4016 -3.21912 -1.79578
upperneck 14.6832 -4.86143 4.08149
head 7.00919 -2.13923 1.10886
rclavicle 6.32135e-014 -1.43125e-014
rhumerus -15.5994 -50.364 21.9536
rradius 86.068
rwrist -24.4005
rhand -30.5629 -8.88457
rfingers 7.12502
rthumb -3.86101 -38.8293
lclavicle 6.32135e-014 -1.43125e-014
lhumerus -44.104 15.4163 77.7442
lradius 75.9695
lwrist 12.5149
lhand -32.5052 3.29934
lfingers 7.12502
lthumb -5.73651 33.2017
rfemur -36.149 -6.29913 12.5719
rtibia 55.1289
rfoot 8.38417 -7.80755
rtoes -25.933
lfemur -32.2337 -7.73342 3.27455
ltibia 97.6245
lfoot -11.7449 -34.0613
ltoes -1.07753
99
root 2.24224 14.1547 -10.3171 -204.107 -32.4008 -168.463
lowerback 27.5597 -5.65117 0.708725
upperback 4.16757 -7.98596 -1.30371
thorax -10.7967 -4.06038 1.06186
lowerneck -14.4562 -3.59379 -2.00077
upperneck 14.5128 -5.36742 4.37929
head 6.99377 -2.36711 1.18497
rclavicle -9.2087e-014 3.81667e-014
rhumerus -12.339 -50.2806 19.2035
rradius 87.2325
rwrist -24.0675
rhand -30.7207 -8.89753
rfingers 7.12502
rthumb -4.01342 -38.8395
lclavicle -9.2087e-014 3.81667e-014
lhumerus -44.4445 15.8766 78.377
lradius 74.4915
lwrist 13.9997
lhand -33.1893 3.87155
lfingers 7.12502
lthumb -6.39692 33.755
rfemur -36.6348 -6.19322 13.21
rtibia 57.0605
rfoot 6.89211 -7.91957
rtoes -27.9279
lfemur -33.8311 -5.97856 2.73665
ltibia 97.4133
lfoot -12.1232 -34.2385
ltoes 0.992632
100
root 2.28675 14.1154 -10.6419 -204.104 -32.3241 -168.52
lowerback 27.9661 -5.24703 1.0488
upperback 4.39917 -7.40812 -1.36431
thorax -10.7837 -3.82357 0.620339
lowerneck -14.4529 -3.96154 -2.26323
upperneck 14.3765 -5.84977 4.65147
head 6.98197 -2.58994 1.26484
rclavicle 4.18442e-014 -6.04305e-014
rhumerus -9.24998 -49.8189 16.3671
rradius 88.3746
rwrist -23.923
rhand -30.9291 -8.85025
rfingers 7.12502
rthumb -4.21463 -38.7883
lclavicle 4.18442e-014 -6.04305e-014
lhumerus -44.7692 16.1413 78.8474
lradius 73.1683
lwrist 15.1785
lhand -33.4994 4.32233
lfingers 7.12502
lthumb -6.69634 34.1964
rfemur -37.2149 -6.20095 13.6945
rtibia 59.0474
rfoot 5.58982 -8.02385
rtoes -28.6992
lfemur -35.5987 -4.12893 1.78568
ltibia 97.1402
lfoot -12.474 -33.7723
ltoes 3.22971
